%
M48
M72
T01C0.03150
T02C0.03543
T03C0.03937
T04C0.04000
T05C0.04331
T06C0.04400
T07C0.04700
T08C0.04724
%
T01
X120743Y105831
X120743Y125831
X122987Y65910
X122987Y45910
X176885Y37682
X176885Y77682
X176885Y92682
X176885Y132682
X176885Y147682
X176885Y187682
X176885Y202682
X176885Y242682
X53578Y272957
X33578Y272957
T02
X33460Y285398
X63460Y285398
X73381Y298296
X73381Y270296
X120783Y165776
X120783Y137776
X128641Y89571
X109641Y75162
X100641Y89571
X97869Y45201
X109641Y45162
X97869Y15201
T03
X141176Y45083
X141176Y55319
X141176Y65162
X151413Y70280
X151413Y60044
X151413Y50201
X141176Y100083
X141176Y110319
X141176Y120162
X151413Y125280
X151413Y115044
X151413Y105201
X141176Y155083
X141176Y165319
X141176Y175162
X151413Y180280
X151413Y170044
X151413Y160201
X141176Y210083
X141176Y220319
X141176Y230162
X151413Y235280
X151413Y225044
X151413Y215201
T04
X119917Y283182
X119917Y293182
X109917Y293182
X109917Y283182
X99917Y283182
X99917Y293182
X19917Y282682
X19917Y272682
X19917Y262682
X19917Y252682
X19917Y242682
X19917Y232682
X19917Y222682
X19917Y212682
X19917Y196682
X19917Y186682
X19917Y176682
X19917Y166682
X19917Y156682
X19917Y146682
X19917Y136682
X19917Y126682
X19917Y116682
X19917Y106682
X209917Y142682
X209917Y152682
X209917Y162682
X209917Y172682
X209917Y182682
X209917Y192682
X209917Y202682
X209917Y212682
X209917Y232682
X209917Y242682
X209917Y252682
X209917Y262682
X209917Y272682
X209917Y282682
T05
X151019Y281540
X141964Y242170
X119917Y244926
X119917Y227997
X92357Y247288
X62436Y196107
X83302Y177603
X86058Y191382
X72279Y165398
X75428Y147682
X80546Y121697
X107712Y163036
X77397Y72485
X45507Y72091
X13617Y93745
X112830Y17367
X139995Y28784
X180940Y23272
X203381Y23666
X215586Y26422
X215192Y14217
X39995Y255162
X47476Y285477
T06
X52121Y239256
X42121Y239256
X62121Y239256
X72121Y239256
X82121Y239256
X92121Y239256
X102121Y239256
X112121Y239256
X113854Y263823
X123854Y263823
X133854Y263823
X143854Y263823
X153854Y263823
X163854Y263823
X173854Y263823
X178854Y292603
X168854Y292603
X158854Y292603
X188854Y292603
X198854Y292603
X112121Y209256
X102121Y209256
X92121Y209256
X82121Y209256
X72121Y209256
X62121Y209256
X52121Y209256
X42121Y209256
X93854Y263823
X103854Y263823
X63617Y90201
X53617Y90201
X43617Y90201
X33617Y90201
X120231Y17367
X130231Y17367
X140231Y17367
X150231Y17367
T07
X22791Y13823
X22791Y33508
X22791Y52012
X22791Y71697
T08
X52987Y111461
X64405Y106343
X61649Y127997
X61649Y139414
X33696Y146501
X72279Y225241
X64011Y248469
X123066Y177603
X136058Y194926
X147869Y194926
X159680Y194926
X184877Y227603
X198657Y252406
X196688Y277603
X178184Y281934
X143145Y291382
X129365Y291382
X192357Y173272
X149838Y140595
X163224Y85477
X139995Y85083
X108499Y129571
X92357Y72485
M30
